solid OpenSCAD_Model
  facet normal -1 0 0
    outer loop
      vertex -13.5 9.89999 -4.89999
      vertex -13.5 -7.39999 -2.5
      vertex -13.5 7.39999 -2.5
    endloop
  endfacet
  facet normal -1 0 -0
    outer loop
      vertex -13.5 -7.39999 -2.5
      vertex -13.5 9.89999 -4.89999
      vertex -13.5 -9.89999 -4.89999
    endloop
  endfacet
  facet normal -1 0 0
    outer loop
      vertex -13.5 -7.39999 -2.5
      vertex -13.5 9.89999 -0.100006
      vertex -13.5 7.39999 -2.5
    endloop
  endfacet
  facet normal -1 -0 0
    outer loop
      vertex -13.5 9.89999 -0.100006
      vertex -13.5 -7.39999 -2.5
      vertex -13.5 -9.89999 -0.100006
    endloop
  endfacet
  facet normal -0 0.69253 0.721389
    outer loop
      vertex -13.5 9.89999 -4.89999
      vertex 18.2 7.39999 -2.5
      vertex 18.2 9.89999 -4.89999
    endloop
  endfacet
  facet normal 0 0.69253 0.721389
    outer loop
      vertex 18.2 7.39999 -2.5
      vertex -13.5 9.89999 -4.89999
      vertex -13.5 7.39999 -2.5
    endloop
  endfacet
  facet normal 0 0.692531 -0.721388
    outer loop
      vertex -13.5 7.39999 -2.5
      vertex 18.2 9.89999 -0.100006
      vertex 18.2 7.39999 -2.5
    endloop
  endfacet
  facet normal 0 0.692531 -0.721388
    outer loop
      vertex 18.2 9.89999 -0.100006
      vertex -13.5 7.39999 -2.5
      vertex -13.5 9.89999 -0.100006
    endloop
  endfacet
  facet normal -0 0 1
    outer loop
      vertex -13.5 9.89999 -0.100006
      vertex 18.2 -9.89999 -0.100006
      vertex 18.2 9.89999 -0.100006
    endloop
  endfacet
  facet normal 0 0 1
    outer loop
      vertex 18.2 -9.89999 -0.100006
      vertex -13.5 9.89999 -0.100006
      vertex -13.5 -9.89999 -0.100006
    endloop
  endfacet
  facet normal 0 -0.692531 -0.721388
    outer loop
      vertex -13.5 -9.89999 -0.100006
      vertex 18.2 -7.39999 -2.5
      vertex 18.2 -9.89999 -0.100006
    endloop
  endfacet
  facet normal -0 -0.692531 -0.721388
    outer loop
      vertex 18.2 -7.39999 -2.5
      vertex -13.5 -9.89999 -0.100006
      vertex -13.5 -7.39999 -2.5
    endloop
  endfacet
  facet normal 0 -0.69253 0.721389
    outer loop
      vertex -13.5 -7.39999 -2.5
      vertex 18.2 -9.89999 -4.89999
      vertex 18.2 -7.39999 -2.5
    endloop
  endfacet
  facet normal 0 -0.69253 0.721389
    outer loop
      vertex 18.2 -9.89999 -4.89999
      vertex -13.5 -7.39999 -2.5
      vertex -13.5 -9.89999 -4.89999
    endloop
  endfacet
  facet normal 0 0 -1
    outer loop
      vertex -13.5 -9.89999 -4.89999
      vertex 18.2 9.89999 -4.89999
      vertex 18.2 -9.89999 -4.89999
    endloop
  endfacet
  facet normal -0 0 -1
    outer loop
      vertex 18.2 9.89999 -4.89999
      vertex -13.5 -9.89999 -4.89999
      vertex -13.5 9.89999 -4.89999
    endloop
  endfacet
  facet normal -1 0 0
    outer loop
      vertex 18.2 -10 -9.1
      vertex 18.2 -2.5 -7.1
      vertex 18.2 -2.5 -9.1
    endloop
  endfacet
  facet normal -1 0 0
    outer loop
      vertex 18.2 -10 -0.0999994
      vertex 18.2 -9.89999 -4.89999
      vertex 18.2 -10 -9.1
    endloop
  endfacet
  facet normal -1 -0 0
    outer loop
      vertex 18.2 -2.5 -7.1
      vertex 18.2 -10 -9.1
      vertex 18.2 -9.89999 -4.89999
    endloop
  endfacet
  facet normal -1 -0 0
    outer loop
      vertex 18.2 -7.39999 -2.5
      vertex 18.2 -9.89999 -4.89999
      vertex 18.2 -9.89999 -0.100006
    endloop
  endfacet
  facet normal -1 0 0
    outer loop
      vertex 18.2 9.89999 -4.89999
      vertex 18.2 7.39999 -2.5
      vertex 18.2 9.89999 -0.100006
    endloop
  endfacet
  facet normal -1 0 0
    outer loop
      vertex 18.2 10 -9.1
      vertex 18.2 9.89999 -4.89999
      vertex 18.2 10 -0.0999994
    endloop
  endfacet
  facet normal -1 0 0
    outer loop
      vertex 18.2 2.5 -7.1
      vertex 18.2 10 -9.1
      vertex 18.2 2.5 -9.1
    endloop
  endfacet
  facet normal -1 0 0
    outer loop
      vertex 18.2 10 -9.1
      vertex 18.2 2.5 -7.1
      vertex 18.2 9.89999 -4.89999
    endloop
  endfacet
  facet normal -1 0 0
    outer loop
      vertex 18.2 -2.5 -7.1
      vertex 18.2 9.89999 -4.89999
      vertex 18.2 2.5 -7.1
    endloop
  endfacet
  facet normal -1 -0 0
    outer loop
      vertex 18.2 9.89999 -4.89999
      vertex 18.2 -2.5 -7.1
      vertex 18.2 -9.89999 -4.89999
    endloop
  endfacet
  facet normal -1 0 0
    outer loop
      vertex 18.2 9.89999 -0.100006
      vertex 18.2 10 -0.0999994
      vertex 18.2 9.89999 -4.89999
    endloop
  endfacet
  facet normal -1 0 0
    outer loop
      vertex 18.2 -9.89999 -0.100006
      vertex 18.2 10 -0.0999994
      vertex 18.2 9.89999 -0.100006
    endloop
  endfacet
  facet normal -1 0 0
    outer loop
      vertex 18.2 -9.89999 -0.100006
      vertex 18.2 -10 -0.0999994
      vertex 18.2 10 -0.0999994
    endloop
  endfacet
  facet normal -1 0 0
    outer loop
      vertex 18.2 -9.89999 -4.89999
      vertex 18.2 -10 -0.0999994
      vertex 18.2 -9.89999 -0.100006
    endloop
  endfacet
  facet normal -0 0 1
    outer loop
      vertex 18.2 10 -0.0999994
      vertex 21.2 -10 -0.0999994
      vertex 21.2 10 -0.0999994
    endloop
  endfacet
  facet normal 0 0 1
    outer loop
      vertex 21.2 -10 -0.0999994
      vertex 18.2 10 -0.0999994
      vertex 18.2 -10 -0.0999994
    endloop
  endfacet
  facet normal 1 -0 0
    outer loop
      vertex 21.2 -10 -0.0999994
      vertex 21.2 10 -9.1
      vertex 21.2 10 -0.0999994
    endloop
  endfacet
  facet normal 1 0 0
    outer loop
      vertex 21.2 10 -9.1
      vertex 21.2 -10 -0.0999994
      vertex 21.2 -10 -9.1
    endloop
  endfacet
  facet normal 0 1 -0
    outer loop
      vertex 21.2 10 -9.1
      vertex 18.2 10 -0.0999994
      vertex 21.2 10 -0.0999994
    endloop
  endfacet
  facet normal 0 1 0
    outer loop
      vertex 18.2 10 -0.0999994
      vertex 21.2 10 -9.1
      vertex 18.2 10 -9.1
    endloop
  endfacet
  facet normal 0 0 -1
    outer loop
      vertex -1 -2.5 -9.1
      vertex 18.2 2.5 -9.1
      vertex 18.2 -2.5 -9.1
    endloop
  endfacet
  facet normal -0 0 -1
    outer loop
      vertex 18.2 2.5 -9.1
      vertex -1 -2.5 -9.1
      vertex -1 2.5 -9.1
    endloop
  endfacet
  facet normal 0 0 -1
    outer loop
      vertex 18.2 -2.5 -9.1
      vertex 21.2 -10 -9.1
      vertex 18.2 -10 -9.1
    endloop
  endfacet
  facet normal 0 0 -1
    outer loop
      vertex 21.2 -10 -9.1
      vertex 18.2 -2.5 -9.1
      vertex 21.2 10 -9.1
    endloop
  endfacet
  facet normal 0 0 -1
    outer loop
      vertex 18.2 2.5 -9.1
      vertex 21.2 10 -9.1
      vertex 18.2 -2.5 -9.1
    endloop
  endfacet
  facet normal -0 0 -1
    outer loop
      vertex 21.2 10 -9.1
      vertex 18.2 2.5 -9.1
      vertex 18.2 10 -9.1
    endloop
  endfacet
  facet normal 0 -1 0
    outer loop
      vertex 18.2 -10 -9.1
      vertex 21.2 -10 -0.0999994
      vertex 18.2 -10 -0.0999994
    endloop
  endfacet
  facet normal 0 -1 -0
    outer loop
      vertex 21.2 -10 -0.0999994
      vertex 18.2 -10 -9.1
      vertex 21.2 -10 -9.1
    endloop
  endfacet
  facet normal -1 0 0
    outer loop
      vertex -1 -2.5 -9.1
      vertex -1 2.5 -7.1
      vertex -1 2.5 -9.1
    endloop
  endfacet
  facet normal -1 -0 0
    outer loop
      vertex -1 2.5 -7.1
      vertex -1 -2.5 -9.1
      vertex -1 -2.5 -7.1
    endloop
  endfacet
  facet normal -0 0 1
    outer loop
      vertex -1 2.5 -7.1
      vertex 18.2 -2.5 -7.1
      vertex 18.2 2.5 -7.1
    endloop
  endfacet
  facet normal 0 0 1
    outer loop
      vertex 18.2 -2.5 -7.1
      vertex -1 2.5 -7.1
      vertex -1 -2.5 -7.1
    endloop
  endfacet
  facet normal 0 1 -0
    outer loop
      vertex 18.2 2.5 -9.1
      vertex -1 2.5 -7.1
      vertex 18.2 2.5 -7.1
    endloop
  endfacet
  facet normal 0 1 0
    outer loop
      vertex -1 2.5 -7.1
      vertex 18.2 2.5 -9.1
      vertex -1 2.5 -9.1
    endloop
  endfacet
  facet normal 0 -1 0
    outer loop
      vertex -1 -2.5 -9.1
      vertex 18.2 -2.5 -7.1
      vertex -1 -2.5 -7.1
    endloop
  endfacet
  facet normal 0 -1 -0
    outer loop
      vertex 18.2 -2.5 -7.1
      vertex -1 -2.5 -9.1
      vertex 18.2 -2.5 -9.1
    endloop
  endfacet
endsolid OpenSCAD_Model
